<?xml version="1.0" encoding="utf-8" standalone="no"?>
<!DOCTYPE svg PUBLIC "-//W3C//DTD SVG 1.1//EN"
  "http://www.w3.org/Graphics/SVG/1.1/DTD/svg11.dtd">
<!-- Created with matplotlib (https://matplotlib.org/) -->
<svg height="356.873333pt" version="1.1" viewBox="0 0 395.663333 356.873333" width="395.663333pt" xmlns="http://www.w3.org/2000/svg" xmlns:xlink="http://www.w3.org/1999/xlink">
 <defs>
  <style type="text/css">
*{stroke-linecap:butt;stroke-linejoin:round;}
  </style>
 </defs>
 <g id="figure_1">
  <g id="patch_1">
   <path d="M 0 356.873333 
L 395.663333 356.873333 
L 395.663333 -0 
L 0 -0 
z
" style="fill:#ffffff;"/>
  </g>
  <g id="axes_1">
   <g id="patch_2">
    <path d="M 97.81 297.853333 
L 393.143333 297.853333 
L 393.143333 2.52 
L 97.81 2.52 
z
" style="fill:#ffffff;"/>
   </g>
   <g id="PolyCollection_1">
    <defs>
     <path d="M 111.107701 -299.59716 
L 111.107701 -335.276173 
L 113.821291 -337.554914 
L 116.534882 -338.263717 
L 119.248472 -338.199596 
L 121.962062 -338.30718 
L 124.675652 -339.077689 
L 127.389242 -340.448876 
L 130.102832 -342.083216 
L 132.816422 -343.664652 
L 135.530012 -345.013099 
L 138.243602 -346.046759 
L 140.957192 -346.713725 
L 143.670782 -346.97 
L 146.384372 -346.797186 
L 149.097962 -346.217387 
L 151.811553 -345.2887 
L 154.525143 -344.095537 
L 157.238733 -342.741755 
L 159.952323 -341.335052 
L 162.665913 -339.957345 
L 165.379503 -338.640063 
L 168.093093 -337.368455 
L 170.806683 -336.115262 
L 173.520273 -334.877628 
L 176.233863 -333.688676 
L 178.947453 -332.597321 
L 181.661043 -331.634789 
L 184.374633 -330.793502 
L 187.088224 -330.032146 
L 189.801814 -329.302312 
L 192.515404 -328.577751 
L 195.228994 -327.863971 
L 197.942584 -327.181703 
L 200.656174 -326.54447 
L 203.369764 -325.956441 
L 206.083354 -325.427971 
L 208.796944 -324.980088 
L 211.510534 -324.625359 
L 214.224124 -324.34855 
L 216.937714 -324.112975 
L 219.651304 -323.885027 
L 222.364895 -323.649844 
L 225.078485 -323.407679 
L 227.792075 -323.162621 
L 230.505665 -322.915318 
L 233.219255 -322.660495 
L 235.932845 -322.388473 
L 238.646435 -322.093149 
L 241.360025 -321.782893 
L 244.073615 -321.482013 
L 246.787205 -321.217126 
L 249.500795 -321.000424 
L 252.214385 -320.825597 
L 254.927975 -320.676916 
L 257.641566 -320.539618 
L 260.355156 -320.403988 
L 263.068746 -320.265139 
L 265.782336 -320.12233 
L 268.495926 -319.978537 
L 271.209516 -319.839398 
L 273.923106 -319.710769 
L 276.636696 -319.594675 
L 279.350286 -319.485845 
L 282.063876 -319.372847 
L 284.777466 -319.244864 
L 287.491056 -319.09987 
L 290.204646 -318.948391 
L 292.918237 -318.810039 
L 295.631827 -318.703793 
L 298.345417 -318.636294 
L 301.059007 -318.595713 
L 303.772597 -318.557659 
L 306.486187 -318.500578 
L 309.199777 -318.418732 
L 311.913367 -318.322744 
L 314.626957 -318.229194 
L 317.340547 -318.148993 
L 320.054137 -318.082603 
L 322.767727 -318.023252 
L 325.481317 -317.963779 
L 328.194908 -317.901528 
L 330.908498 -317.838662 
L 333.622088 -317.779209 
L 336.335678 -317.726057 
L 339.049268 -317.680159 
L 341.762858 -317.641682 
L 344.476448 -317.610971 
L 347.190038 -317.587908 
L 349.903628 -317.570557 
L 352.617218 -317.555155 
L 355.330808 -317.538196 
L 358.044398 -317.518988 
L 360.757988 -317.500327 
L 363.471579 -317.486679 
L 366.185169 -317.481426 
L 368.898759 -317.484998 
L 371.612349 -317.49443 
L 374.325939 -317.504179 
L 377.039529 -317.508247 
L 379.753119 -317.503126 
L 379.753119 -317.370207 
L 379.753119 -317.370207 
L 377.039529 -317.365086 
L 374.325939 -317.369154 
L 371.612349 -317.378904 
L 368.898759 -317.388335 
L 366.185169 -317.391908 
L 363.471579 -317.386655 
L 360.757988 -317.373006 
L 358.044398 -317.354346 
L 355.330808 -317.335137 
L 352.617218 -317.318178 
L 349.903628 -317.302776 
L 347.190038 -317.285425 
L 344.476448 -317.262362 
L 341.762858 -317.231652 
L 339.049268 -317.193175 
L 336.335678 -317.147277 
L 333.622088 -317.094124 
L 330.908498 -317.034672 
L 328.194908 -316.971806 
L 325.481317 -316.909555 
L 322.767727 -316.850081 
L 320.054137 -316.790731 
L 317.340547 -316.72434 
L 314.626957 -316.64414 
L 311.913367 -316.550589 
L 309.199777 -316.454601 
L 306.486187 -316.372755 
L 303.772597 -316.315674 
L 301.059007 -316.27762 
L 298.345417 -316.23704 
L 295.631827 -316.16954 
L 292.918237 -316.063294 
L 290.204646 -315.924943 
L 287.491056 -315.773463 
L 284.777466 -315.62847 
L 282.063876 -315.500486 
L 279.350286 -315.387488 
L 276.636696 -315.278659 
L 273.923106 -315.162564 
L 271.209516 -315.033935 
L 268.495926 -314.894796 
L 265.782336 -314.751003 
L 263.068746 -314.608194 
L 260.355156 -314.469345 
L 257.641566 -314.333716 
L 254.927975 -314.196417 
L 252.214385 -314.047737 
L 249.500795 -313.872909 
L 246.787205 -313.656207 
L 244.073615 -313.391321 
L 241.360025 -313.09044 
L 238.646435 -312.780184 
L 235.932845 -312.48486 
L 233.219255 -312.212838 
L 230.505665 -311.958015 
L 227.792075 -311.710713 
L 225.078485 -311.465654 
L 222.364895 -311.223489 
L 219.651304 -310.988307 
L 216.937714 -310.760358 
L 214.224124 -310.524783 
L 211.510534 -310.247975 
L 208.796944 -309.893245 
L 206.083354 -309.445363 
L 203.369764 -308.916892 
L 200.656174 -308.328863 
L 197.942584 -307.691631 
L 195.228994 -307.009362 
L 192.515404 -306.295582 
L 189.801814 -305.571022 
L 187.088224 -304.841188 
L 184.374633 -304.079831 
L 181.661043 -303.238545 
L 178.947453 -302.276012 
L 176.233863 -301.184658 
L 173.520273 -299.995705 
L 170.806683 -298.758071 
L 168.093093 -297.504879 
L 165.379503 -296.23327 
L 162.665913 -294.915988 
L 159.952323 -293.538281 
L 157.238733 -292.131578 
L 154.525143 -290.777796 
L 151.811553 -289.584633 
L 149.097962 -288.655947 
L 146.384372 -288.076147 
L 143.670782 -287.903333 
L 140.957192 -288.159608 
L 138.243602 -288.826575 
L 135.530012 -289.860235 
L 132.816422 -291.208681 
L 130.102832 -292.790118 
L 127.389242 -294.424457 
L 124.675652 -295.795644 
L 121.962062 -296.566153 
L 119.248472 -296.673737 
L 116.534882 -296.609617 
L 113.821291 -297.31842 
L 111.107701 -299.59716 
z
" id="m4c87d957e7" style="stroke:#333333;"/>
    </defs>
    <g clip-path="url(#p588dc68868)">
     <use style="fill:#484566;stroke:#333333;" x="0" xlink:href="#m4c87d957e7" y="356.873333"/>
    </g>
   </g>
   <g id="PolyCollection_2">
    <defs>
     <path d="M 111.082864 -224.742319 
L 111.082864 -262.464348 
L 113.797246 -264.185404 
L 116.511628 -264.6534 
L 119.22601 -264.361855 
L 121.940392 -263.962658 
L 124.654774 -263.943393 
L 127.369156 -264.480154 
L 130.083538 -265.488997 
L 132.79792 -266.768273 
L 135.512302 -268.118766 
L 138.226684 -269.397829 
L 140.941066 -270.522532 
L 143.655448 -271.4526 
L 146.36983 -272.173163 
L 149.084212 -272.684373 
L 151.798594 -272.997898 
L 154.512976 -273.136667 
L 157.227358 -273.13229 
L 159.94174 -273.016726 
L 162.656122 -272.811359 
L 165.370504 -272.521875 
L 168.084886 -272.144665 
L 170.799268 -271.680981 
L 173.51365 -271.147643 
L 176.228032 -270.575298 
L 178.942414 -269.995475 
L 181.656796 -269.42637 
L 184.371178 -268.867077 
L 187.08556 -268.302514 
L 189.799942 -267.714301 
L 192.514324 -267.09139 
L 195.228706 -266.436661 
L 197.943088 -265.768 
L 200.65747 -265.113562 
L 203.371852 -264.502724 
L 206.086234 -263.956587 
L 208.800616 -263.482415 
L 211.514998 -263.073836 
L 214.22938 -262.71525 
L 216.943762 -262.387585 
L 219.658144 -262.073481 
L 222.372526 -261.761014 
L 225.086908 -261.445343 
L 227.80129 -261.127737 
L 230.515672 -260.812435 
L 233.230054 -260.503199 
L 235.944436 -260.201717 
L 238.658818 -259.908411 
L 241.3732 -259.623947 
L 244.087582 -259.349196 
L 246.801964 -259.083418 
L 249.516346 -258.82285 
L 252.230728 -258.562153 
L 254.94511 -258.298668 
L 257.659492 -258.036395 
L 260.373874 -257.786134 
L 263.088256 -257.560936 
L 265.802638 -257.369828 
L 268.51702 -257.21403 
L 271.231402 -257.087482 
L 273.945784 -256.980026 
L 276.660166 -256.880462 
L 279.374548 -256.778164 
L 282.08893 -256.66387 
L 284.803312 -256.530846 
L 287.517694 -256.376962 
L 290.232076 -256.2068 
L 292.946458 -256.031582 
L 295.66084 -255.865101 
L 298.375222 -255.71681 
L 301.089604 -255.586646 
L 303.803986 -255.46597 
L 306.518368 -255.344457 
L 309.23275 -255.217729 
L 311.947132 -255.089908 
L 314.661514 -254.969401 
L 317.375896 -254.861359 
L 320.090278 -254.762145 
L 322.80466 -254.659023 
L 325.519042 -254.53455 
L 328.233424 -254.37273 
L 330.947806 -254.163919 
L 333.662188 -253.906669 
L 336.37657 -253.606083 
L 339.090952 -253.269678 
L 341.805334 -252.903127 
L 344.519715 -252.508239 
L 347.234097 -252.083622 
L 349.948479 -251.626531 
L 352.662861 -251.134179 
L 355.377243 -250.604066 
L 358.091625 -250.033843 
L 360.806007 -249.421457 
L 363.520389 -248.766375 
L 366.234771 -248.07243 
L 368.949153 -247.351631 
L 371.663535 -246.626751 
L 374.377917 -245.9302 
L 377.092299 -245.298303 
L 379.806681 -244.762695 
L 379.806681 -242.443972 
L 379.806681 -242.443972 
L 377.092299 -241.908364 
L 374.377917 -241.276467 
L 371.663535 -240.579915 
L 368.949153 -239.855036 
L 366.234771 -239.134237 
L 363.520389 -238.440292 
L 360.806007 -237.78521 
L 358.091625 -237.172824 
L 355.377243 -236.602601 
L 352.662861 -236.072488 
L 349.948479 -235.580136 
L 347.234097 -235.123045 
L 344.519715 -234.698428 
L 341.805334 -234.303539 
L 339.090952 -233.936989 
L 336.37657 -233.600583 
L 333.662188 -233.299998 
L 330.947806 -233.042748 
L 328.233424 -232.833936 
L 325.519042 -232.672117 
L 322.80466 -232.547644 
L 320.090278 -232.444522 
L 317.375896 -232.345308 
L 314.661514 -232.237266 
L 311.947132 -232.116759 
L 309.23275 -231.988938 
L 306.518368 -231.86221 
L 303.803986 -231.740696 
L 301.089604 -231.620021 
L 298.375222 -231.489857 
L 295.66084 -231.341566 
L 292.946458 -231.175085 
L 290.232076 -230.999867 
L 287.517694 -230.829705 
L 284.803312 -230.675821 
L 282.08893 -230.542797 
L 279.374548 -230.428503 
L 276.660166 -230.326205 
L 273.945784 -230.226641 
L 271.231402 -230.119185 
L 268.51702 -229.992636 
L 265.802638 -229.836839 
L 263.088256 -229.64573 
L 260.373874 -229.420533 
L 257.659492 -229.170272 
L 254.94511 -228.907999 
L 252.230728 -228.644513 
L 249.516346 -228.383817 
L 246.801964 -228.123248 
L 244.087582 -227.857471 
L 241.3732 -227.58272 
L 238.658818 -227.298255 
L 235.944436 -227.00495 
L 233.230054 -226.703468 
L 230.515672 -226.394232 
L 227.80129 -226.07893 
L 225.086908 -225.761323 
L 222.372526 -225.445652 
L 219.658144 -225.133186 
L 216.943762 -224.819081 
L 214.22938 -224.491417 
L 211.514998 -224.132831 
L 208.800616 -223.724252 
L 206.086234 -223.250079 
L 203.371852 -222.703942 
L 200.65747 -222.093105 
L 197.943088 -221.438667 
L 195.228706 -220.770006 
L 192.514324 -220.115277 
L 189.799942 -219.492365 
L 187.08556 -218.904152 
L 184.371178 -218.33959 
L 181.656796 -217.780297 
L 178.942414 -217.211192 
L 176.228032 -216.631368 
L 173.51365 -216.059023 
L 170.799268 -215.525685 
L 168.084886 -215.062002 
L 165.370504 -214.684791 
L 162.656122 -214.395308 
L 159.94174 -214.189941 
L 157.227358 -214.074376 
L 154.512976 -214.07 
L 151.798594 -214.208769 
L 149.084212 -214.522294 
L 146.36983 -215.033504 
L 143.655448 -215.754067 
L 140.941066 -216.684134 
L 138.226684 -217.808838 
L 135.512302 -219.0879 
L 132.79792 -220.438393 
L 130.083538 -221.717669 
L 127.369156 -222.726513 
L 124.654774 -223.263273 
L 121.940392 -223.244008 
L 119.22601 -222.844811 
L 116.511628 -222.553267 
L 113.797246 -223.021263 
L 111.082864 -224.742319 
z
" id="m1efc174729" style="stroke:#333333;"/>
    </defs>
    <g clip-path="url(#p588dc68868)">
     <use style="fill:#484566;stroke:#333333;" x="0" xlink:href="#m1efc174729" y="356.873333"/>
    </g>
   </g>
   <g id="PolyCollection_3">
    <defs>
     <path d="M 111.020561 -152.680712 
L 111.020561 -186.859288 
L 113.736804 -187.731101 
L 116.453047 -187.848118 
L 119.16929 -187.316517 
L 121.885533 -186.336885 
L 124.601776 -185.144533 
L 127.318019 -183.951265 
L 130.034262 -182.906669 
L 132.750505 -182.085831 
L 135.466748 -181.499445 
L 138.182991 -181.11611 
L 140.899234 -180.886321 
L 143.615477 -180.761044 
L 146.33172 -180.702184 
L 149.047962 -180.685592 
L 151.764205 -180.699006 
L 154.480448 -180.737683 
L 157.196691 -180.799955 
L 159.912934 -180.884024 
L 162.629177 -180.986371 
L 165.34542 -181.101524 
L 168.061663 -181.222674 
L 170.777906 -181.342662 
L 173.494149 -181.455061 
L 176.210392 -181.555124 
L 178.926635 -181.64043 
L 181.642878 -181.711005 
L 184.35912 -181.768809 
L 187.075363 -181.816661 
L 189.791606 -181.856938 
L 192.507849 -181.89051 
L 195.224092 -181.916402 
L 197.940335 -181.932413 
L 200.656578 -181.936524 
L 203.372821 -181.928583 
L 206.089064 -181.911554 
L 208.805307 -181.891734 
L 211.52155 -181.877754 
L 214.237793 -181.87866 
L 216.954036 -181.90172 
L 219.670278 -181.950665 
L 222.386521 -182.024851 
L 225.102764 -182.119459 
L 227.819007 -182.226543 
L 230.53525 -182.336568 
L 233.251493 -182.440076 
L 235.967736 -182.529215 
L 238.683979 -182.598903 
L 241.400222 -182.647468 
L 244.116465 -182.676664 
L 246.832708 -182.691089 
L 249.548951 -182.697142 
L 252.265194 -182.701769 
L 254.981437 -182.711234 
L 257.697679 -182.730115 
L 260.413922 -182.760667 
L 263.130165 -182.802677 
L 265.846408 -182.853884 
L 268.562651 -182.910953 
L 271.278894 -182.970734 
L 273.995137 -183.031433 
L 276.71138 -183.09326 
L 279.427623 -183.158366 
L 282.143866 -183.230184 
L 284.860109 -183.312534 
L 287.576352 -183.408908 
L 290.292595 -183.52214 
L 293.008837 -183.654482 
L 295.72508 -183.807948 
L 298.441323 -183.984767 
L 301.157566 -184.187836 
L 303.873809 -184.421016 
L 306.590052 -184.689088 
L 309.306295 -184.997205 
L 312.022538 -185.349855 
L 314.738781 -185.749685 
L 317.455024 -186.196746 
L 320.171267 -186.688682 
L 322.88751 -187.222004 
L 325.603753 -187.794033 
L 328.319996 -188.404695 
L 331.036238 -189.05739 
L 333.752481 -189.758553 
L 336.468724 -190.516105 
L 339.184967 -191.337379 
L 341.90121 -192.227074 
L 344.617453 -193.185355 
L 347.333696 -194.205641 
L 350.049939 -195.271274 
L 352.766182 -196.350464 
L 355.482425 -197.389716 
L 358.198668 -198.307493 
L 360.914911 -198.991425 
L 363.631154 -199.303333 
L 366.347396 -199.095503 
L 369.063639 -198.238421 
L 371.779882 -196.655102 
L 374.496125 -194.352179 
L 377.212368 -191.435945 
L 379.928611 -188.104634 
L 379.928611 -151.435366 
L 379.928611 -151.435366 
L 377.212368 -148.104055 
L 374.496125 -145.187821 
L 371.779882 -142.884898 
L 369.063639 -141.301579 
L 366.347396 -140.444497 
L 363.631154 -140.236667 
L 360.914911 -140.548575 
L 358.198668 -141.232507 
L 355.482425 -142.150284 
L 352.766182 -143.189536 
L 350.049939 -144.268726 
L 347.333696 -145.334359 
L 344.617453 -146.354645 
L 341.90121 -147.312926 
L 339.184967 -148.202621 
L 336.468724 -149.023895 
L 333.752481 -149.781447 
L 331.036238 -150.48261 
L 328.319996 -151.135305 
L 325.603753 -151.745967 
L 322.88751 -152.317996 
L 320.171267 -152.851318 
L 317.455024 -153.343254 
L 314.738781 -153.790315 
L 312.022538 -154.190145 
L 309.306295 -154.542795 
L 306.590052 -154.850912 
L 303.873809 -155.118984 
L 301.157566 -155.352164 
L 298.441323 -155.555233 
L 295.72508 -155.732052 
L 293.008837 -155.885518 
L 290.292595 -156.01786 
L 287.576352 -156.131092 
L 284.860109 -156.227466 
L 282.143866 -156.309816 
L 279.427623 -156.381634 
L 276.71138 -156.44674 
L 273.995137 -156.508567 
L 271.278894 -156.569266 
L 268.562651 -156.629047 
L 265.846408 -156.686116 
L 263.130165 -156.737323 
L 260.413922 -156.779333 
L 257.697679 -156.809885 
L 254.981437 -156.828766 
L 252.265194 -156.838231 
L 249.548951 -156.842858 
L 246.832708 -156.848911 
L 244.116465 -156.863336 
L 241.400222 -156.892532 
L 238.683979 -156.941097 
L 235.967736 -157.010785 
L 233.251493 -157.099924 
L 230.53525 -157.203432 
L 227.819007 -157.313457 
L 225.102764 -157.420541 
L 222.386521 -157.515149 
L 219.670278 -157.589335 
L 216.954036 -157.63828 
L 214.237793 -157.66134 
L 211.52155 -157.662246 
L 208.805307 -157.648266 
L 206.089064 -157.628446 
L 203.372821 -157.611417 
L 200.656578 -157.603476 
L 197.940335 -157.607587 
L 195.224092 -157.623598 
L 192.507849 -157.64949 
L 189.791606 -157.683062 
L 187.075363 -157.723339 
L 184.35912 -157.771191 
L 181.642878 -157.828995 
L 178.926635 -157.89957 
L 176.210392 -157.984876 
L 173.494149 -158.084939 
L 170.777906 -158.197338 
L 168.061663 -158.317326 
L 165.34542 -158.438476 
L 162.629177 -158.553629 
L 159.912934 -158.655976 
L 157.196691 -158.740045 
L 154.480448 -158.802317 
L 151.764205 -158.840994 
L 149.047962 -158.854408 
L 146.33172 -158.837816 
L 143.615477 -158.778956 
L 140.899234 -158.653679 
L 138.182991 -158.42389 
L 135.466748 -158.040555 
L 132.750505 -157.454169 
L 130.034262 -156.633331 
L 127.318019 -155.588735 
L 124.601776 -154.395467 
L 121.885533 -153.203115 
L 119.16929 -152.223483 
L 116.453047 -151.691882 
L 113.736804 -151.808899 
L 111.020561 -152.680712 
z
" id="ma598c7684e" style="stroke:#333333;"/>
    </defs>
    <g clip-path="url(#p588dc68868)">
     <use style="fill:#484566;stroke:#333333;" x="0" xlink:href="#ma598c7684e" y="356.873333"/>
    </g>
   </g>
   <g id="PolyCollection_4">
    <defs>
     <path d="M 110.98584 -91.810244 
L 110.98584 -100.063089 
L 113.702827 -100.431997 
L 116.419813 -100.684143 
L 119.1368 -100.810698 
L 121.853786 -100.816432 
L 124.570772 -100.717375 
L 127.287759 -100.536864 
L 130.004745 -100.301084 
L 132.721732 -100.035157 
L 135.438718 -99.760427 
L 138.155704 -99.493133 
L 140.872691 -99.244282 
L 143.589677 -99.020318 
L 146.306663 -98.824149 
L 149.02365 -98.6562 
L 151.740636 -98.515287 
L 154.457623 -98.399275 
L 157.174609 -98.30555 
L 159.891595 -98.23138 
L 162.608582 -98.174222 
L 165.325568 -98.131968 
L 168.042555 -98.103089 
L 170.759541 -98.086642 
L 173.476527 -98.082107 
L 176.193514 -98.089098 
L 178.9105 -98.107026 
L 181.627487 -98.134837 
L 184.344473 -98.170901 
L 187.061459 -98.213103 
L 189.778446 -98.259096 
L 192.495432 -98.306649 
L 195.212418 -98.35397 
L 197.929405 -98.399939 
L 200.646391 -98.444176 
L 203.363378 -98.486964 
L 206.080364 -98.529045 
L 208.79735 -98.571378 
L 211.514337 -98.614904 
L 214.231323 -98.660394 
L 216.94831 -98.70838 
L 219.665296 -98.759167 
L 222.382282 -98.812879 
L 225.099269 -98.869504 
L 227.816255 -98.928898 
L 230.533242 -98.99077 
L 233.250228 -99.054651 
L 235.967214 -99.1199 
L 238.684201 -99.185744 
L 241.401187 -99.251351 
L 244.118173 -99.3159 
L 246.83516 -99.37863 
L 249.552146 -99.43885 
L 252.269133 -99.49593 
L 254.986119 -99.549311 
L 257.703105 -99.598556 
L 260.420092 -99.643437 
L 263.137078 -99.684016 
L 265.854065 -99.720684 
L 268.571051 -99.754084 
L 271.288037 -99.784967 
L 274.005024 -99.813996 
L 276.72201 -99.841623 
L 279.438997 -99.86809 
L 282.155983 -99.893606 
L 284.872969 -99.91864 
L 287.589956 -99.944232 
L 290.306942 -99.972187 
L 293.023928 -100.00505 
L 295.740915 -100.045847 
L 298.457901 -100.097643 
L 301.174888 -100.16306 
L 303.891874 -100.243905 
L 306.60886 -100.341052 
L 309.325847 -100.454597 
L 312.042833 -100.584273 
L 314.75982 -100.729976 
L 317.476806 -100.892292 
L 320.193792 -101.072922 
L 322.910779 -101.275022 
L 325.627765 -101.503537 
L 328.344752 -101.765717 
L 331.061738 -102.07195 
L 333.778724 -102.437003 
L 336.495711 -102.881601 
L 339.212697 -103.434051 
L 341.929683 -104.131371 
L 344.64667 -105.019043 
L 347.363656 -106.148251 
L 350.080643 -107.569403 
L 352.797629 -109.321099 
L 355.514615 -111.4148 
L 358.231602 -113.81724 
L 360.948588 -116.434735 
L 363.665575 -119.105221 
L 366.382561 -121.603941 
L 369.099547 -123.666384 
L 371.816534 -125.027452 
L 374.53352 -125.47 
L 377.250506 -124.871135 
L 379.967493 -123.233236 
L 379.967493 -68.640097 
L 379.967493 -68.640097 
L 377.250506 -67.002198 
L 374.53352 -66.403333 
L 371.816534 -66.845881 
L 369.099547 -68.206949 
L 366.382561 -70.269392 
L 363.665575 -72.768112 
L 360.948588 -75.438599 
L 358.231602 -78.056093 
L 355.514615 -80.458533 
L 352.797629 -82.552235 
L 350.080643 -84.303931 
L 347.363656 -85.725083 
L 344.64667 -86.854291 
L 341.929683 -87.741962 
L 339.212697 -88.439282 
L 336.495711 -88.991732 
L 333.778724 -89.43633 
L 331.061738 -89.801383 
L 328.344752 -90.107616 
L 325.627765 -90.369796 
L 322.910779 -90.598311 
L 320.193792 -90.800411 
L 317.476806 -90.981042 
L 314.75982 -91.143357 
L 312.042833 -91.28906 
L 309.325847 -91.418736 
L 306.60886 -91.532282 
L 303.891874 -91.629428 
L 301.174888 -91.710273 
L 298.457901 -91.77569 
L 295.740915 -91.827486 
L 293.023928 -91.868284 
L 290.306942 -91.901146 
L 287.589956 -91.929101 
L 284.872969 -91.954693 
L 282.155983 -91.979728 
L 279.438997 -92.005244 
L 276.72201 -92.031711 
L 274.005024 -92.059337 
L 271.288037 -92.088367 
L 268.571051 -92.119249 
L 265.854065 -92.15265 
L 263.137078 -92.189317 
L 260.420092 -92.229897 
L 257.703105 -92.274777 
L 254.986119 -92.324022 
L 252.269133 -92.377403 
L 249.552146 -92.434483 
L 246.83516 -92.494703 
L 244.118173 -92.557433 
L 241.401187 -92.621982 
L 238.684201 -92.687589 
L 235.967214 -92.753433 
L 233.250228 -92.818683 
L 230.533242 -92.882564 
L 227.816255 -92.944435 
L 225.099269 -93.00383 
L 222.382282 -93.060454 
L 219.665296 -93.114166 
L 216.94831 -93.164953 
L 214.231323 -93.212939 
L 211.514337 -93.258429 
L 208.79735 -93.301956 
L 206.080364 -93.344288 
L 203.363378 -93.38637 
L 200.646391 -93.429157 
L 197.929405 -93.473394 
L 195.212418 -93.519363 
L 192.495432 -93.566684 
L 189.778446 -93.614237 
L 187.061459 -93.66023 
L 184.344473 -93.702432 
L 181.627487 -93.738497 
L 178.9105 -93.766307 
L 176.193514 -93.784236 
L 173.476527 -93.791226 
L 170.759541 -93.786692 
L 168.042555 -93.770244 
L 165.325568 -93.741365 
L 162.608582 -93.699111 
L 159.891595 -93.641954 
L 157.174609 -93.567784 
L 154.457623 -93.474058 
L 151.740636 -93.358046 
L 149.02365 -93.217133 
L 146.306663 -93.049184 
L 143.589677 -92.853015 
L 140.872691 -92.629051 
L 138.155704 -92.3802 
L 135.438718 -92.112906 
L 132.721732 -91.838176 
L 130.004745 -91.572249 
L 127.287759 -91.336469 
L 124.570772 -91.155958 
L 121.853786 -91.056901 
L 119.1368 -91.062635 
L 116.419813 -91.189191 
L 113.702827 -91.441336 
L 110.98584 -91.810244 
z
" id="m216ec5dc9e" style="stroke:#333333;"/>
    </defs>
    <g clip-path="url(#p588dc68868)">
     <use style="fill:#484566;stroke:#333333;" x="0" xlink:href="#m216ec5dc9e" y="356.873333"/>
    </g>
   </g>
   <g id="patch_3">
    <path clip-path="url(#p588dc68868)" d="M 111.234242 39.436667 
L 111.234242 39.436667 
L 111.234242 39.436667 
L 111.234242 39.436667 
z
" style="fill:#484566;stroke:#333333;stroke-linejoin:miter;stroke-width:0.5;"/>
   </g>
   <g id="matplotlib.axis_1">
    <g id="xtick_1">
     <g id="line2d_1">
      <defs>
       <path d="M 0 0 
L 0 3.5 
" id="m0039b98d66" style="stroke:#000000;stroke-width:1.6;"/>
      </defs>
      <g>
       <use style="stroke:#000000;stroke-width:1.6;" x="111.234242" xlink:href="#m0039b98d66" y="297.853333"/>
      </g>
     </g>
     <g id="text_1">
      <!-- 0.0 -->
      <defs>
       <path d="M 31.78125 66.40625 
Q 24.171875 66.40625 20.328125 58.90625 
Q 16.5 51.421875 16.5 36.375 
Q 16.5 21.390625 20.328125 13.890625 
Q 24.171875 6.390625 31.78125 6.390625 
Q 39.453125 6.390625 43.28125 13.890625 
Q 47.125 21.390625 47.125 36.375 
Q 47.125 51.421875 43.28125 58.90625 
Q 39.453125 66.40625 31.78125 66.40625 
z
M 31.78125 74.21875 
Q 44.046875 74.21875 50.515625 64.515625 
Q 56.984375 54.828125 56.984375 36.375 
Q 56.984375 17.96875 50.515625 8.265625 
Q 44.046875 -1.421875 31.78125 -1.421875 
Q 19.53125 -1.421875 13.0625 8.265625 
Q 6.59375 17.96875 6.59375 36.375 
Q 6.59375 54.828125 13.0625 64.515625 
Q 19.53125 74.21875 31.78125 74.21875 
z
" id="DejaVuSans-48"/>
       <path d="M 10.6875 12.40625 
L 21 12.40625 
L 21 0 
L 10.6875 0 
z
" id="DejaVuSans-46"/>
      </defs>
      <g transform="translate(95.331117 327.750208)scale(0.2 -0.2)">
       <use xlink:href="#DejaVuSans-48"/>
       <use x="63.623047" xlink:href="#DejaVuSans-46"/>
       <use x="95.410156" xlink:href="#DejaVuSans-48"/>
      </g>
     </g>
    </g>
    <g id="xtick_2">
     <g id="line2d_2">
      <g>
       <use style="stroke:#000000;stroke-width:1.6;" x="245.476667" xlink:href="#m0039b98d66" y="297.853333"/>
      </g>
     </g>
     <g id="text_2">
      <!-- 0.5 -->
      <defs>
       <path d="M 10.796875 72.90625 
L 49.515625 72.90625 
L 49.515625 64.59375 
L 19.828125 64.59375 
L 19.828125 46.734375 
Q 21.96875 47.46875 24.109375 47.828125 
Q 26.265625 48.1875 28.421875 48.1875 
Q 40.625 48.1875 47.75 41.5 
Q 54.890625 34.8125 54.890625 23.390625 
Q 54.890625 11.625 47.5625 5.09375 
Q 40.234375 -1.421875 26.90625 -1.421875 
Q 22.3125 -1.421875 17.546875 -0.640625 
Q 12.796875 0.140625 7.71875 1.703125 
L 7.71875 11.625 
Q 12.109375 9.234375 16.796875 8.0625 
Q 21.484375 6.890625 26.703125 6.890625 
Q 35.15625 6.890625 40.078125 11.328125 
Q 45.015625 15.765625 45.015625 23.390625 
Q 45.015625 31 40.078125 35.4375 
Q 35.15625 39.890625 26.703125 39.890625 
Q 22.75 39.890625 18.8125 39.015625 
Q 14.890625 38.140625 10.796875 36.28125 
z
" id="DejaVuSans-53"/>
      </defs>
      <g transform="translate(229.573542 327.750208)scale(0.2 -0.2)">
       <use xlink:href="#DejaVuSans-48"/>
       <use x="63.623047" xlink:href="#DejaVuSans-46"/>
       <use x="95.410156" xlink:href="#DejaVuSans-53"/>
      </g>
     </g>
    </g>
    <g id="xtick_3">
     <g id="line2d_3">
      <g>
       <use style="stroke:#000000;stroke-width:1.6;" x="379.719091" xlink:href="#m0039b98d66" y="297.853333"/>
      </g>
     </g>
     <g id="text_3">
      <!-- 1.0 -->
      <defs>
       <path d="M 12.40625 8.296875 
L 28.515625 8.296875 
L 28.515625 63.921875 
L 10.984375 60.40625 
L 10.984375 69.390625 
L 28.421875 72.90625 
L 38.28125 72.90625 
L 38.28125 8.296875 
L 54.390625 8.296875 
L 54.390625 0 
L 12.40625 0 
z
" id="DejaVuSans-49"/>
      </defs>
      <g transform="translate(363.815966 327.750208)scale(0.2 -0.2)">
       <use xlink:href="#DejaVuSans-49"/>
       <use x="63.623047" xlink:href="#DejaVuSans-46"/>
       <use x="95.410156" xlink:href="#DejaVuSans-48"/>
      </g>
     </g>
    </g>
    <g id="text_4">
     <!-- Median Output Difference -->
     <defs>
      <path d="M 9.8125 72.90625 
L 24.515625 72.90625 
L 43.109375 23.296875 
L 61.8125 72.90625 
L 76.515625 72.90625 
L 76.515625 0 
L 66.890625 0 
L 66.890625 64.015625 
L 48.09375 14.015625 
L 38.1875 14.015625 
L 19.390625 64.015625 
L 19.390625 0 
L 9.8125 0 
z
" id="DejaVuSans-77"/>
      <path d="M 56.203125 29.59375 
L 56.203125 25.203125 
L 14.890625 25.203125 
Q 15.484375 15.921875 20.484375 11.0625 
Q 25.484375 6.203125 34.421875 6.203125 
Q 39.59375 6.203125 44.453125 7.46875 
Q 49.3125 8.734375 54.109375 11.28125 
L 54.109375 2.78125 
Q 49.265625 0.734375 44.1875 -0.34375 
Q 39.109375 -1.421875 33.890625 -1.421875 
Q 20.796875 -1.421875 13.15625 6.1875 
Q 5.515625 13.8125 5.515625 26.8125 
Q 5.515625 40.234375 12.765625 48.109375 
Q 20.015625 56 32.328125 56 
Q 43.359375 56 49.78125 48.890625 
Q 56.203125 41.796875 56.203125 29.59375 
z
M 47.21875 32.234375 
Q 47.125 39.59375 43.09375 43.984375 
Q 39.0625 48.390625 32.421875 48.390625 
Q 24.90625 48.390625 20.390625 44.140625 
Q 15.875 39.890625 15.1875 32.171875 
z
" id="DejaVuSans-101"/>
      <path d="M 45.40625 46.390625 
L 45.40625 75.984375 
L 54.390625 75.984375 
L 54.390625 0 
L 45.40625 0 
L 45.40625 8.203125 
Q 42.578125 3.328125 38.25 0.953125 
Q 33.9375 -1.421875 27.875 -1.421875 
Q 17.96875 -1.421875 11.734375 6.484375 
Q 5.515625 14.40625 5.515625 27.296875 
Q 5.515625 40.1875 11.734375 48.09375 
Q 17.96875 56 27.875 56 
Q 33.9375 56 38.25 53.625 
Q 42.578125 51.265625 45.40625 46.390625 
z
M 14.796875 27.296875 
Q 14.796875 17.390625 18.875 11.75 
Q 22.953125 6.109375 30.078125 6.109375 
Q 37.203125 6.109375 41.296875 11.75 
Q 45.40625 17.390625 45.40625 27.296875 
Q 45.40625 37.203125 41.296875 42.84375 
Q 37.203125 48.484375 30.078125 48.484375 
Q 22.953125 48.484375 18.875 42.84375 
Q 14.796875 37.203125 14.796875 27.296875 
z
" id="DejaVuSans-100"/>
      <path d="M 9.421875 54.6875 
L 18.40625 54.6875 
L 18.40625 0 
L 9.421875 0 
z
M 9.421875 75.984375 
L 18.40625 75.984375 
L 18.40625 64.59375 
L 9.421875 64.59375 
z
" id="DejaVuSans-105"/>
      <path d="M 34.28125 27.484375 
Q 23.390625 27.484375 19.1875 25 
Q 14.984375 22.515625 14.984375 16.5 
Q 14.984375 11.71875 18.140625 8.90625 
Q 21.296875 6.109375 26.703125 6.109375 
Q 34.1875 6.109375 38.703125 11.40625 
Q 43.21875 16.703125 43.21875 25.484375 
L 43.21875 27.484375 
z
M 52.203125 31.203125 
L 52.203125 0 
L 43.21875 0 
L 43.21875 8.296875 
Q 40.140625 3.328125 35.546875 0.953125 
Q 30.953125 -1.421875 24.3125 -1.421875 
Q 15.921875 -1.421875 10.953125 3.296875 
Q 6 8.015625 6 15.921875 
Q 6 25.140625 12.171875 29.828125 
Q 18.359375 34.515625 30.609375 34.515625 
L 43.21875 34.515625 
L 43.21875 35.40625 
Q 43.21875 41.609375 39.140625 45 
Q 35.0625 48.390625 27.6875 48.390625 
Q 23 48.390625 18.546875 47.265625 
Q 14.109375 46.140625 10.015625 43.890625 
L 10.015625 52.203125 
Q 14.9375 54.109375 19.578125 55.046875 
Q 24.21875 56 28.609375 56 
Q 40.484375 56 46.34375 49.84375 
Q 52.203125 43.703125 52.203125 31.203125 
z
" id="DejaVuSans-97"/>
      <path d="M 54.890625 33.015625 
L 54.890625 0 
L 45.90625 0 
L 45.90625 32.71875 
Q 45.90625 40.484375 42.875 44.328125 
Q 39.84375 48.1875 33.796875 48.1875 
Q 26.515625 48.1875 22.3125 43.546875 
Q 18.109375 38.921875 18.109375 30.90625 
L 18.109375 0 
L 9.078125 0 
L 9.078125 54.6875 
L 18.109375 54.6875 
L 18.109375 46.1875 
Q 21.34375 51.125 25.703125 53.5625 
Q 30.078125 56 35.796875 56 
Q 45.21875 56 50.046875 50.171875 
Q 54.890625 44.34375 54.890625 33.015625 
z
" id="DejaVuSans-110"/>
      <path id="DejaVuSans-32"/>
      <path d="M 39.40625 66.21875 
Q 28.65625 66.21875 22.328125 58.203125 
Q 16.015625 50.203125 16.015625 36.375 
Q 16.015625 22.609375 22.328125 14.59375 
Q 28.65625 6.59375 39.40625 6.59375 
Q 50.140625 6.59375 56.421875 14.59375 
Q 62.703125 22.609375 62.703125 36.375 
Q 62.703125 50.203125 56.421875 58.203125 
Q 50.140625 66.21875 39.40625 66.21875 
z
M 39.40625 74.21875 
Q 54.734375 74.21875 63.90625 63.9375 
Q 73.09375 53.65625 73.09375 36.375 
Q 73.09375 19.140625 63.90625 8.859375 
Q 54.734375 -1.421875 39.40625 -1.421875 
Q 24.03125 -1.421875 14.8125 8.828125 
Q 5.609375 19.09375 5.609375 36.375 
Q 5.609375 53.65625 14.8125 63.9375 
Q 24.03125 74.21875 39.40625 74.21875 
z
" id="DejaVuSans-79"/>
      <path d="M 8.5 21.578125 
L 8.5 54.6875 
L 17.484375 54.6875 
L 17.484375 21.921875 
Q 17.484375 14.15625 20.5 10.265625 
Q 23.53125 6.390625 29.59375 6.390625 
Q 36.859375 6.390625 41.078125 11.03125 
Q 45.3125 15.671875 45.3125 23.6875 
L 45.3125 54.6875 
L 54.296875 54.6875 
L 54.296875 0 
L 45.3125 0 
L 45.3125 8.40625 
Q 42.046875 3.421875 37.71875 1 
Q 33.40625 -1.421875 27.6875 -1.421875 
Q 18.265625 -1.421875 13.375 4.4375 
Q 8.5 10.296875 8.5 21.578125 
z
M 31.109375 56 
z
" id="DejaVuSans-117"/>
      <path d="M 18.3125 70.21875 
L 18.3125 54.6875 
L 36.8125 54.6875 
L 36.8125 47.703125 
L 18.3125 47.703125 
L 18.3125 18.015625 
Q 18.3125 11.328125 20.140625 9.421875 
Q 21.96875 7.515625 27.59375 7.515625 
L 36.8125 7.515625 
L 36.8125 0 
L 27.59375 0 
Q 17.1875 0 13.234375 3.875 
Q 9.28125 7.765625 9.28125 18.015625 
L 9.28125 47.703125 
L 2.6875 47.703125 
L 2.6875 54.6875 
L 9.28125 54.6875 
L 9.28125 70.21875 
z
" id="DejaVuSans-116"/>
      <path d="M 18.109375 8.203125 
L 18.109375 -20.796875 
L 9.078125 -20.796875 
L 9.078125 54.6875 
L 18.109375 54.6875 
L 18.109375 46.390625 
Q 20.953125 51.265625 25.265625 53.625 
Q 29.59375 56 35.59375 56 
Q 45.5625 56 51.78125 48.09375 
Q 58.015625 40.1875 58.015625 27.296875 
Q 58.015625 14.40625 51.78125 6.484375 
Q 45.5625 -1.421875 35.59375 -1.421875 
Q 29.59375 -1.421875 25.265625 0.953125 
Q 20.953125 3.328125 18.109375 8.203125 
z
M 48.6875 27.296875 
Q 48.6875 37.203125 44.609375 42.84375 
Q 40.53125 48.484375 33.40625 48.484375 
Q 26.265625 48.484375 22.1875 42.84375 
Q 18.109375 37.203125 18.109375 27.296875 
Q 18.109375 17.390625 22.1875 11.75 
Q 26.265625 6.109375 33.40625 6.109375 
Q 40.53125 6.109375 44.609375 11.75 
Q 48.6875 17.390625 48.6875 27.296875 
z
" id="DejaVuSans-112"/>
      <path d="M 19.671875 64.796875 
L 19.671875 8.109375 
L 31.59375 8.109375 
Q 46.6875 8.109375 53.6875 14.9375 
Q 60.6875 21.78125 60.6875 36.53125 
Q 60.6875 51.171875 53.6875 57.984375 
Q 46.6875 64.796875 31.59375 64.796875 
z
M 9.8125 72.90625 
L 30.078125 72.90625 
Q 51.265625 72.90625 61.171875 64.09375 
Q 71.09375 55.28125 71.09375 36.53125 
Q 71.09375 17.671875 61.125 8.828125 
Q 51.171875 0 30.078125 0 
L 9.8125 0 
z
" id="DejaVuSans-68"/>
      <path d="M 37.109375 75.984375 
L 37.109375 68.5 
L 28.515625 68.5 
Q 23.6875 68.5 21.796875 66.546875 
Q 19.921875 64.59375 19.921875 59.515625 
L 19.921875 54.6875 
L 34.71875 54.6875 
L 34.71875 47.703125 
L 19.921875 47.703125 
L 19.921875 0 
L 10.890625 0 
L 10.890625 47.703125 
L 2.296875 47.703125 
L 2.296875 54.6875 
L 10.890625 54.6875 
L 10.890625 58.5 
Q 10.890625 67.625 15.140625 71.796875 
Q 19.390625 75.984375 28.609375 75.984375 
z
" id="DejaVuSans-102"/>
      <path d="M 41.109375 46.296875 
Q 39.59375 47.171875 37.8125 47.578125 
Q 36.03125 48 33.890625 48 
Q 26.265625 48 22.1875 43.046875 
Q 18.109375 38.09375 18.109375 28.8125 
L 18.109375 0 
L 9.078125 0 
L 9.078125 54.6875 
L 18.109375 54.6875 
L 18.109375 46.1875 
Q 20.953125 51.171875 25.484375 53.578125 
Q 30.03125 56 36.53125 56 
Q 37.453125 56 38.578125 55.875 
Q 39.703125 55.765625 41.0625 55.515625 
z
" id="DejaVuSans-114"/>
      <path d="M 48.78125 52.59375 
L 48.78125 44.1875 
Q 44.96875 46.296875 41.140625 47.34375 
Q 37.3125 48.390625 33.40625 48.390625 
Q 24.65625 48.390625 19.8125 42.84375 
Q 14.984375 37.3125 14.984375 27.296875 
Q 14.984375 17.28125 19.8125 11.734375 
Q 24.65625 6.203125 33.40625 6.203125 
Q 37.3125 6.203125 41.140625 7.25 
Q 44.96875 8.296875 48.78125 10.40625 
L 48.78125 2.09375 
Q 45.015625 0.34375 40.984375 -0.53125 
Q 36.96875 -1.421875 32.421875 -1.421875 
Q 20.0625 -1.421875 12.78125 6.34375 
Q 5.515625 14.109375 5.515625 27.296875 
Q 5.515625 40.671875 12.859375 48.328125 
Q 20.21875 56 33.015625 56 
Q 37.15625 56 41.109375 55.140625 
Q 45.0625 54.296875 48.78125 52.59375 
z
" id="DejaVuSans-99"/>
     </defs>
     <g transform="translate(116.089167 351.106458)scale(0.2 -0.2)">
      <use xlink:href="#DejaVuSans-77"/>
      <use x="86.279297" xlink:href="#DejaVuSans-101"/>
      <use x="147.802734" xlink:href="#DejaVuSans-100"/>
      <use x="211.279297" xlink:href="#DejaVuSans-105"/>
      <use x="239.0625" xlink:href="#DejaVuSans-97"/>
      <use x="300.341797" xlink:href="#DejaVuSans-110"/>
      <use x="363.720703" xlink:href="#DejaVuSans-32"/>
      <use x="395.507812" xlink:href="#DejaVuSans-79"/>
      <use x="474.21875" xlink:href="#DejaVuSans-117"/>
      <use x="537.597656" xlink:href="#DejaVuSans-116"/>
      <use x="576.806641" xlink:href="#DejaVuSans-112"/>
      <use x="640.283203" xlink:href="#DejaVuSans-117"/>
      <use x="703.662109" xlink:href="#DejaVuSans-116"/>
      <use x="742.871094" xlink:href="#DejaVuSans-32"/>
      <use x="774.658203" xlink:href="#DejaVuSans-68"/>
      <use x="851.660156" xlink:href="#DejaVuSans-105"/>
      <use x="879.443359" xlink:href="#DejaVuSans-102"/>
      <use x="914.648438" xlink:href="#DejaVuSans-102"/>
      <use x="949.853516" xlink:href="#DejaVuSans-101"/>
      <use x="1011.376953" xlink:href="#DejaVuSans-114"/>
      <use x="1052.458984" xlink:href="#DejaVuSans-101"/>
      <use x="1113.982422" xlink:href="#DejaVuSans-110"/>
      <use x="1177.361328" xlink:href="#DejaVuSans-99"/>
      <use x="1232.341797" xlink:href="#DejaVuSans-101"/>
     </g>
    </g>
   </g>
   <g id="matplotlib.axis_2">
    <g id="ytick_1">
     <g id="line2d_4">
      <defs>
       <path d="M 0 0 
L -3.5 0 
" id="m1c65b8412c" style="stroke:#000000;stroke-width:1.6;"/>
      </defs>
      <g>
       <use style="stroke:#000000;stroke-width:1.6;" x="97.81" xlink:href="#m1c65b8412c" y="39.436667"/>
      </g>
     </g>
     <g id="text_5">
      <!-- [0.00, -->
      <defs>
       <path d="M 8.59375 75.984375 
L 29.296875 75.984375 
L 29.296875 69 
L 17.578125 69 
L 17.578125 -6.203125 
L 29.296875 -6.203125 
L 29.296875 -13.1875 
L 8.59375 -13.1875 
z
" id="DejaVuSans-91"/>
       <path d="M 11.71875 12.40625 
L 22.015625 12.40625 
L 22.015625 4 
L 14.015625 -11.625 
L 7.71875 -11.625 
L 11.71875 4 
z
" id="DejaVuSans-44"/>
      </defs>
      <g transform="translate(24.419375 35.837292)scale(0.2 -0.2)">
       <use xlink:href="#DejaVuSans-91"/>
       <use x="39.013672" xlink:href="#DejaVuSans-48"/>
       <use x="102.636719" xlink:href="#DejaVuSans-46"/>
       <use x="134.423828" xlink:href="#DejaVuSans-48"/>
       <use x="198.046875" xlink:href="#DejaVuSans-48"/>
       <use x="261.669922" xlink:href="#DejaVuSans-44"/>
      </g>
      <!-- 0.25) -->
      <defs>
       <path d="M 19.1875 8.296875 
L 53.609375 8.296875 
L 53.609375 0 
L 7.328125 0 
L 7.328125 8.296875 
Q 12.9375 14.109375 22.625 23.890625 
Q 32.328125 33.6875 34.8125 36.53125 
Q 39.546875 41.84375 41.421875 45.53125 
Q 43.3125 49.21875 43.3125 52.78125 
Q 43.3125 58.59375 39.234375 62.25 
Q 35.15625 65.921875 28.609375 65.921875 
Q 23.96875 65.921875 18.8125 64.3125 
Q 13.671875 62.703125 7.8125 59.421875 
L 7.8125 69.390625 
Q 13.765625 71.78125 18.9375 73 
Q 24.125 74.21875 28.421875 74.21875 
Q 39.75 74.21875 46.484375 68.546875 
Q 53.21875 62.890625 53.21875 53.421875 
Q 53.21875 48.921875 51.53125 44.890625 
Q 49.859375 40.875 45.40625 35.40625 
Q 44.1875 33.984375 37.640625 27.21875 
Q 31.109375 20.453125 19.1875 8.296875 
z
" id="DejaVuSans-50"/>
       <path d="M 8.015625 75.875 
L 15.828125 75.875 
Q 23.140625 64.359375 26.78125 53.3125 
Q 30.421875 42.28125 30.421875 31.390625 
Q 30.421875 20.453125 26.78125 9.375 
Q 23.140625 -1.703125 15.828125 -13.1875 
L 8.015625 -13.1875 
Q 14.5 -2 17.703125 9.0625 
Q 20.90625 20.125 20.90625 31.390625 
Q 20.90625 42.671875 17.703125 53.65625 
Q 14.5 64.65625 8.015625 75.875 
z
" id="DejaVuSans-41"/>
      </defs>
      <g transform="translate(30.775625 58.232917)scale(0.2 -0.2)">
       <use xlink:href="#DejaVuSans-48"/>
       <use x="63.623047" xlink:href="#DejaVuSans-46"/>
       <use x="95.410156" xlink:href="#DejaVuSans-50"/>
       <use x="159.033203" xlink:href="#DejaVuSans-53"/>
       <use x="222.65625" xlink:href="#DejaVuSans-41"/>
      </g>
     </g>
    </g>
    <g id="ytick_2">
     <g id="line2d_5">
      <g>
       <use style="stroke:#000000;stroke-width:1.6;" x="97.81" xlink:href="#m1c65b8412c" y="113.27"/>
      </g>
     </g>
     <g id="text_6">
      <!-- [0.25, -->
      <g transform="translate(24.419375 109.670625)scale(0.2 -0.2)">
       <use xlink:href="#DejaVuSans-91"/>
       <use x="39.013672" xlink:href="#DejaVuSans-48"/>
       <use x="102.636719" xlink:href="#DejaVuSans-46"/>
       <use x="134.423828" xlink:href="#DejaVuSans-50"/>
       <use x="198.046875" xlink:href="#DejaVuSans-53"/>
       <use x="261.669922" xlink:href="#DejaVuSans-44"/>
      </g>
      <!-- 0.50) -->
      <g transform="translate(30.775625 132.06625)scale(0.2 -0.2)">
       <use xlink:href="#DejaVuSans-48"/>
       <use x="63.623047" xlink:href="#DejaVuSans-46"/>
       <use x="95.410156" xlink:href="#DejaVuSans-53"/>
       <use x="159.033203" xlink:href="#DejaVuSans-48"/>
       <use x="222.65625" xlink:href="#DejaVuSans-41"/>
      </g>
     </g>
    </g>
    <g id="ytick_3">
     <g id="line2d_6">
      <g>
       <use style="stroke:#000000;stroke-width:1.6;" x="97.81" xlink:href="#m1c65b8412c" y="187.103333"/>
      </g>
     </g>
     <g id="text_7">
      <!-- [0.50, -->
      <g transform="translate(24.419375 183.503958)scale(0.2 -0.2)">
       <use xlink:href="#DejaVuSans-91"/>
       <use x="39.013672" xlink:href="#DejaVuSans-48"/>
       <use x="102.636719" xlink:href="#DejaVuSans-46"/>
       <use x="134.423828" xlink:href="#DejaVuSans-53"/>
       <use x="198.046875" xlink:href="#DejaVuSans-48"/>
       <use x="261.669922" xlink:href="#DejaVuSans-44"/>
      </g>
      <!-- 0.75) -->
      <defs>
       <path d="M 8.203125 72.90625 
L 55.078125 72.90625 
L 55.078125 68.703125 
L 28.609375 0 
L 18.3125 0 
L 43.21875 64.59375 
L 8.203125 64.59375 
z
" id="DejaVuSans-55"/>
      </defs>
      <g transform="translate(30.775625 205.899583)scale(0.2 -0.2)">
       <use xlink:href="#DejaVuSans-48"/>
       <use x="63.623047" xlink:href="#DejaVuSans-46"/>
       <use x="95.410156" xlink:href="#DejaVuSans-55"/>
       <use x="159.033203" xlink:href="#DejaVuSans-53"/>
       <use x="222.65625" xlink:href="#DejaVuSans-41"/>
      </g>
     </g>
    </g>
    <g id="ytick_4">
     <g id="line2d_7">
      <g>
       <use style="stroke:#000000;stroke-width:1.6;" x="97.81" xlink:href="#m1c65b8412c" y="260.936667"/>
      </g>
     </g>
     <g id="text_8">
      <!-- [0.75, -->
      <g transform="translate(24.419375 257.337292)scale(0.2 -0.2)">
       <use xlink:href="#DejaVuSans-91"/>
       <use x="39.013672" xlink:href="#DejaVuSans-48"/>
       <use x="102.636719" xlink:href="#DejaVuSans-46"/>
       <use x="134.423828" xlink:href="#DejaVuSans-55"/>
       <use x="198.046875" xlink:href="#DejaVuSans-53"/>
       <use x="261.669922" xlink:href="#DejaVuSans-44"/>
      </g>
      <!-- 1.00) -->
      <g transform="translate(30.775625 279.732917)scale(0.2 -0.2)">
       <use xlink:href="#DejaVuSans-49"/>
       <use x="63.623047" xlink:href="#DejaVuSans-46"/>
       <use x="95.410156" xlink:href="#DejaVuSans-48"/>
       <use x="159.033203" xlink:href="#DejaVuSans-48"/>
       <use x="222.65625" xlink:href="#DejaVuSans-41"/>
      </g>
     </g>
    </g>
    <g id="text_9">
     <!-- Max attention -->
     <defs>
      <path d="M 54.890625 54.6875 
L 35.109375 28.078125 
L 55.90625 0 
L 45.3125 0 
L 29.390625 21.484375 
L 13.484375 0 
L 2.875 0 
L 24.125 28.609375 
L 4.6875 54.6875 
L 15.28125 54.6875 
L 29.78125 35.203125 
L 44.28125 54.6875 
z
" id="DejaVuSans-120"/>
      <path d="M 30.609375 48.390625 
Q 23.390625 48.390625 19.1875 42.75 
Q 14.984375 37.109375 14.984375 27.296875 
Q 14.984375 17.484375 19.15625 11.84375 
Q 23.34375 6.203125 30.609375 6.203125 
Q 37.796875 6.203125 41.984375 11.859375 
Q 46.1875 17.53125 46.1875 27.296875 
Q 46.1875 37.015625 41.984375 42.703125 
Q 37.796875 48.390625 30.609375 48.390625 
z
M 30.609375 56 
Q 42.328125 56 49.015625 48.375 
Q 55.71875 40.765625 55.71875 27.296875 
Q 55.71875 13.875 49.015625 6.21875 
Q 42.328125 -1.421875 30.609375 -1.421875 
Q 18.84375 -1.421875 12.171875 6.21875 
Q 5.515625 13.875 5.515625 27.296875 
Q 5.515625 40.765625 12.171875 48.375 
Q 18.84375 56 30.609375 56 
z
" id="DejaVuSans-111"/>
     </defs>
     <g transform="translate(16.26 219.653854)rotate(-90)scale(0.2 -0.2)">
      <use xlink:href="#DejaVuSans-77"/>
      <use x="86.279297" xlink:href="#DejaVuSans-97"/>
      <use x="147.558594" xlink:href="#DejaVuSans-120"/>
      <use x="206.738281" xlink:href="#DejaVuSans-32"/>
      <use x="238.525391" xlink:href="#DejaVuSans-97"/>
      <use x="299.804688" xlink:href="#DejaVuSans-116"/>
      <use x="339.013672" xlink:href="#DejaVuSans-116"/>
      <use x="378.222656" xlink:href="#DejaVuSans-101"/>
      <use x="439.746094" xlink:href="#DejaVuSans-110"/>
      <use x="503.125" xlink:href="#DejaVuSans-116"/>
      <use x="542.333984" xlink:href="#DejaVuSans-105"/>
      <use x="570.117188" xlink:href="#DejaVuSans-111"/>
      <use x="631.298828" xlink:href="#DejaVuSans-110"/>
     </g>
    </g>
   </g>
   <g id="line2d_8">
    <path clip-path="url(#p588dc68868)" d="M 133.798667 13.470961 
L 133.798667 65.402372 
" style="fill:none;stroke:#333333;stroke-dasharray:1.5,1.5;stroke-dashoffset:0;"/>
   </g>
   <g id="line2d_9">
    <path clip-path="url(#p588dc68868)" d="M 154.207392 13.044385 
L 154.207392 65.828948 
" style="fill:none;stroke:#333333;stroke-dasharray:3,3;stroke-dashoffset:0;"/>
   </g>
   <g id="line2d_10">
    <path clip-path="url(#p588dc68868)" d="M 185.406728 26.2134 
L 185.406728 52.659934 
" style="fill:none;stroke:#333333;stroke-dasharray:1.5,1.5;stroke-dashoffset:0;"/>
   </g>
   <g id="line2d_11">
    <path clip-path="url(#p588dc68868)" d="M 153.386525 84.032 
L 153.386525 142.508 
" style="fill:none;stroke:#333333;stroke-dasharray:1.5,1.5;stroke-dashoffset:0;"/>
   </g>
   <g id="line2d_12">
    <path clip-path="url(#p588dc68868)" d="M 196.246026 90.665006 
L 196.246026 135.874994 
" style="fill:none;stroke:#333333;stroke-dasharray:3,3;stroke-dashoffset:0;"/>
   </g>
   <g id="line2d_13">
    <path clip-path="url(#p588dc68868)" d="M 262.604986 99.451973 
L 262.604986 127.088027 
" style="fill:none;stroke:#333333;stroke-dasharray:1.5,1.5;stroke-dashoffset:0;"/>
   </g>
   <g id="line2d_14">
    <path clip-path="url(#p588dc68868)" d="M 183.971764 175.224513 
L 183.971764 198.982154 
" style="fill:none;stroke:#333333;stroke-dasharray:1.5,1.5;stroke-dashoffset:0;"/>
   </g>
   <g id="line2d_15">
    <path clip-path="url(#p588dc68868)" d="M 273.497406 173.974515 
L 273.497406 200.232152 
" style="fill:none;stroke:#333333;stroke-dasharray:3,3;stroke-dashoffset:0;"/>
   </g>
   <g id="line2d_16">
    <path clip-path="url(#p588dc68868)" d="M 344.281696 163.922132 
L 344.281696 210.284535 
" style="fill:none;stroke:#333333;stroke-dasharray:1.5,1.5;stroke-dashoffset:0;"/>
   </g>
   <g id="line2d_17">
    <path clip-path="url(#p588dc68868)" d="M 258.760074 257.311396 
L 258.760074 264.561937 
" style="fill:none;stroke:#333333;stroke-dasharray:1.5,1.5;stroke-dashoffset:0;"/>
   </g>
   <g id="line2d_18">
    <path clip-path="url(#p588dc68868)" d="M 356.334029 245.613314 
L 356.334029 276.260019 
" style="fill:none;stroke:#333333;stroke-dasharray:3,3;stroke-dashoffset:0;"/>
   </g>
   <g id="line2d_19">
    <path clip-path="url(#p588dc68868)" d="M 376.685873 232.291543 
L 376.685873 289.58179 
" style="fill:none;stroke:#333333;stroke-dasharray:1.5,1.5;stroke-dashoffset:0;"/>
   </g>
   <g id="patch_4">
    <path d="M 97.81 297.853333 
L 97.81 2.52 
" style="fill:none;stroke:#000000;stroke-linecap:square;stroke-linejoin:miter;stroke-width:0.8;"/>
   </g>
   <g id="patch_5">
    <path d="M 97.81 297.853333 
L 393.143333 297.853333 
" style="fill:none;stroke:#000000;stroke-linecap:square;stroke-linejoin:miter;stroke-width:0.8;"/>
   </g>
  </g>
 </g>
 <defs>
  <clipPath id="p588dc68868">
   <rect height="295.333333" width="295.333333" x="97.81" y="2.52"/>
  </clipPath>
 </defs>
</svg>
